<?xml version="1.0" encoding="UTF-8" standalone="no"?>
<svg xmlns:ffdec="https://www.free-decompiler.com/flash" xmlns:xlink="http://www.w3.org/1999/xlink" ffdec:objectType="shape" height="181.35px" width="274.75px" xmlns="http://www.w3.org/2000/svg">
  <g transform="matrix(1.0, 0.0, 0.0, 1.0, 0.0, 0.0)">
    <path d="M267.3 6.15 Q270.45 6.15 272.6 8.3 274.75 10.45 274.75 13.5 274.75 16.65 272.6 18.8 270.45 20.9 267.25 20.9 264.05 20.9 261.85 18.8 259.65 16.65 259.65 13.5 259.65 10.45 261.85 8.3 264.05 6.15 267.25 6.15 L267.3 6.15 M267.2 7.65 Q264.8 7.65 263.15 9.4 261.55 11.05 261.55 13.5 261.55 16.0 263.15 17.7 264.8 19.4 267.3 19.4 269.7 19.45 271.3 17.7 272.9 16.0 272.9 13.5 272.9 11.05 271.3 9.4 269.65 7.65 267.25 7.65 L267.2 7.65 M267.2 9.75 Q268.8 9.75 269.75 10.35 270.45 10.9 270.45 11.9 270.45 13.25 268.95 13.65 L268.95 13.75 Q269.9 14.05 270.3 15.55 L270.8 17.35 269.0 17.35 Q268.75 17.05 268.4 15.6 268.2 14.4 266.9 14.4 L266.05 14.4 266.05 17.35 264.35 17.35 264.35 10.05 267.2 9.75 M266.1 13.2 L266.9 13.2 Q268.6 13.2 268.6 12.15 268.6 11.0 267.05 11.0 L266.1 11.1 266.1 13.2" fill="#667799" fill-rule="evenodd" stroke="none"/>
    <path d="M259.3 94.75 L177.05 94.7 177.05 181.35 82.25 181.35 82.25 94.75 0.05 94.75 0.0 0.0 259.3 0.0 259.3 94.75" fill="#667799" fill-rule="evenodd" stroke="none"/>
    <path d="M256.3 91.75 L174.05 91.7 174.05 178.35 85.25 178.35 85.25 91.75 3.0 91.75 3.0 3.0 256.3 3.0 256.3 91.75" fill="#333366" fill-rule="evenodd" stroke="none"/>
    <path d="M255.4 4.05 L255.4 90.8 173.15 90.8 173.15 177.4 86.35 177.4 86.35 90.8 4.1 90.8 4.1 4.05 255.4 4.05" fill="url(#gradient0)" fill-rule="evenodd" stroke="none"/>
    <path d="M230.9 21.4 L251.9 62.9 253.0 65.6 Q253.55 67.85 253.6 71.3 L253.55 89.0 184.7 89.0 158.55 37.7 158.55 89.1 138.5 89.1 138.5 25.5 126.25 25.5 126.25 89.1 50.95 89.1 50.95 25.5 38.6 25.5 38.6 89.1 18.55 89.1 18.55 25.5 5.5 25.5 5.5 5.75 187.1 5.75 172.3 30.8 178.85 30.8 190.6 53.9 190.6 5.55 254.4 5.55 245.75 26.45 242.7 21.65 Q242.6 21.4 242.0 21.4 L230.9 21.4 M232.7 69.15 L210.9 26.3 210.65 25.7 210.65 65.35 214.55 68.35 Q215.55 69.15 216.15 69.15 L232.7 69.15 M71.0 45.95 L71.0 69.4 97.15 69.4 106.2 86.7 106.2 25.5 93.15 25.5 93.15 10.8 84.55 25.5 71.0 25.5 71.0 30.1 88.05 30.1 79.4 45.95 71.0 45.95 M158.55 19.9 L158.55 28.9 163.8 19.9 158.55 19.9" fill="#313e65" fill-rule="evenodd" stroke="none"/>
    <path d="M229.9 21.65 L251.0 63.4 Q251.7 64.7 252.0 65.95 252.55 68.1 252.6 71.35 L252.55 88.1 210.75 88.1 210.7 66.7 213.95 69.15 Q215.3 70.15 216.1 70.15 L233.25 70.2 233.8 69.85 Q234.0 69.55 233.7 68.95 L211.8 25.9 Q210.75 23.85 210.75 21.65 L210.75 6.55 252.9 6.55 245.6 24.35 243.55 21.15 Q243.1 20.45 242.05 20.4 L230.4 20.45 229.8 20.8 229.8 21.35 229.9 21.65 M70.0 44.95 L70.0 70.4 96.55 70.4 105.8 88.15 51.95 88.15 51.95 6.75 138.25 6.75 138.25 24.5 125.25 24.5 125.25 88.15 107.2 88.15 107.2 24.5 94.15 24.5 94.15 7.1 84.0 24.5 70.0 24.5 70.0 31.1 86.35 31.1 78.8 44.95 70.0 44.95 M165.5 18.95 L157.55 18.95 157.55 32.6 165.5 18.95 M209.65 25.85 L209.65 88.1 208.0 88.1 191.6 56.1 191.6 25.85 209.65 25.85 M209.65 24.3 L191.6 24.3 191.6 6.55 209.65 6.55 209.65 24.3 M178.25 31.8 L206.9 88.1 185.3 88.1 157.55 33.55 157.55 88.15 139.5 88.15 139.5 6.75 185.35 6.75 170.55 31.8 178.25 31.8 M6.5 6.75 L50.65 6.75 50.65 24.5 37.6 24.5 37.6 88.15 19.55 88.15 19.55 24.5 6.5 24.5 6.5 6.75" fill="#ccccff" fill-rule="evenodd" stroke="none"/>
    <path d="M245.2 20.05 Q244.25 18.55 242.1 18.4 L230.15 18.45 Q228.9 18.6 228.15 19.75 227.5 20.85 227.85 21.9 L228.1 22.55 249.25 64.3 250.1 66.55 Q250.55 68.4 250.6 71.35 L250.55 85.9 212.7 85.9 212.7 70.75 Q214.6 72.15 216.1 72.15 L233.45 72.2 233.6 72.15 Q234.85 71.9 235.5 70.8 236.05 69.75 235.75 68.7 L213.6 25.0 Q212.75 23.3 212.75 21.65 L212.75 19.3 212.7 19.25 212.7 8.55 249.95 8.55 245.2 20.05 M82.85 22.5 L68.0 22.5 68.0 33.1 83.0 33.1 77.65 42.95 68.0 42.95 68.0 72.4 95.3 72.4 102.5 86.15 53.95 86.15 53.95 8.75 90.85 8.75 82.85 22.5 M96.15 22.5 L96.15 8.75 136.25 8.75 136.25 22.5 123.25 22.5 123.25 86.15 109.2 86.15 109.2 22.5 96.15 22.5 M169.0 16.95 L155.55 16.95 155.55 86.15 141.5 86.15 141.5 8.75 181.85 8.75 167.05 33.8 177.0 33.8 203.6 86.15 186.55 86.15 159.6 33.1 169.0 16.95 M207.65 27.85 L207.65 82.95 193.6 55.7 193.6 27.85 207.65 27.85 M193.6 22.3 L193.6 8.55 207.65 8.55 207.65 22.3 193.6 22.3 M8.5 8.75 L48.65 8.75 48.65 22.5 35.6 22.5 35.6 86.15 21.55 86.15 21.55 22.5 8.5 22.5 8.5 8.75" fill="url(#gradient1)" fill-rule="evenodd" stroke="none"/>
    <path d="M242.1 18.4 L230.15 18.45 Q228.9 18.6 228.15 19.75 227.5 20.85 227.85 21.9 L228.1 22.55 249.25 64.3 250.1 66.55 Q250.55 68.4 250.6 71.35 L250.55 85.9 212.7 85.9 212.7 70.75 Q214.6 72.15 216.1 72.15 L233.45 72.2 233.6 72.15 Q234.85 71.9 235.5 70.8 236.05 69.75 235.75 68.7 L235.6 68.35 213.6 25.0 Q212.75 23.3 212.75 21.65 L212.75 19.3 212.7 19.25 212.7 8.55 249.95 8.55 245.2 20.05 Q244.25 18.55 242.1 18.4 M249.2 9.05 L213.2 9.05 213.2 19.1 213.25 19.15 213.25 21.65 Q213.25 23.15 214.05 24.75 L236.0 68.05 236.05 68.1 236.05 68.2 236.2 68.55 Q236.6 69.8 235.9 71.05 235.2 72.35 233.75 72.65 L233.55 72.7 216.1 72.65 Q214.8 72.65 213.2 71.7 L213.2 85.4 250.05 85.4 250.1 71.35 Q250.05 66.8 248.8 64.55 L227.65 22.8 227.35 22.05 Q226.95 20.7 227.7 19.45 228.6 18.2 230.1 17.95 L242.1 17.9 Q244.05 18.05 245.1 19.1 L249.2 9.05 M82.85 22.5 L68.0 22.5 68.0 33.1 83.0 33.1 77.65 42.95 68.0 42.95 68.0 72.4 95.3 72.4 102.5 86.15 53.95 86.15 53.95 8.75 90.85 8.75 82.85 22.5 M90.0 9.25 L54.45 9.25 54.45 85.65 101.7 85.65 95.0 72.9 67.5 72.9 67.5 42.45 77.35 42.45 82.15 33.6 67.5 33.6 67.5 22.0 82.55 22.0 90.0 9.25 M109.7 22.0 L109.7 85.65 122.75 85.65 122.75 22.0 135.75 22.0 135.75 9.25 96.65 9.25 96.65 22.0 109.7 22.0 M96.15 8.75 L136.25 8.75 136.25 22.5 123.25 22.5 123.25 86.15 109.2 86.15 109.2 22.5 96.15 22.5 96.15 8.75 M169.85 16.45 L160.15 33.15 186.85 85.65 202.8 85.65 176.7 34.3 166.2 34.3 180.95 9.25 142.0 9.25 142.0 85.65 155.05 85.65 155.05 16.45 169.85 16.45 M155.55 16.95 L155.55 86.15 141.5 86.15 141.5 8.75 181.85 8.75 167.05 33.8 177.0 33.8 203.6 86.15 186.55 86.15 159.6 33.1 169.0 16.95 155.55 16.95 M207.65 8.55 L207.65 22.3 193.6 22.3 193.6 8.55 207.65 8.55 M207.65 27.85 L207.65 82.95 193.6 55.7 193.6 27.85 207.65 27.85 M207.15 9.05 L194.1 9.05 194.1 21.8 207.15 21.8 207.15 9.05 M194.1 28.35 L194.1 55.55 207.15 80.95 207.15 28.35 194.1 28.35 M8.5 8.75 L48.65 8.75 48.65 22.5 35.6 22.5 35.6 86.15 21.55 86.15 21.55 22.5 8.5 22.5 8.5 8.75 M9.0 22.0 L22.05 22.0 22.05 85.65 35.1 85.65 35.1 22.0 48.15 22.0 48.15 9.25 9.0 9.25 9.0 22.0" fill="#ffffff" fill-rule="evenodd" stroke="none"/>
    <path d="M207.65 82.95 L209.65 88.1 208.0 88.1 207.65 82.95" fill="#313e65" fill-rule="evenodd" stroke="none"/>
    <path d="M135.75 100.0 L153.75 100.0 153.75 105.8 209.75 105.8 209.75 163.8 107.7 163.8 107.7 144.15 83.8 144.15 83.8 163.8 51.75 163.8 51.75 105.8 83.8 105.8 83.8 126.15 107.7 126.15 107.7 100.0 125.7 100.0 125.7 105.8 135.75 105.8 135.75 100.0" fill="#667799" fill-rule="evenodd" stroke="none"/>
    <path d="M125.7 119.8 L121.7 119.8 121.7 149.8 125.7 149.8 125.7 119.8 M121.7 104.0 L121.7 109.8 135.7 109.8 135.7 159.8 111.7 159.8 111.7 104.0 121.7 104.0 M83.75 140.15 L83.75 130.15 107.75 130.15 107.75 140.15 83.75 140.15 M55.75 109.8 L79.8 109.8 79.8 159.8 69.8 159.8 69.8 119.8 65.75 119.8 65.75 159.8 55.75 159.8 55.75 109.8 M153.75 109.8 L177.75 109.8 177.75 159.8 153.75 159.8 153.75 109.8 M195.75 109.8 L205.75 109.8 205.75 129.8 198.75 129.8 198.75 133.8 205.75 133.8 205.75 159.8 195.75 159.8 195.75 144.05 191.75 144.05 191.75 159.8 181.75 159.8 181.75 133.8 188.75 133.8 188.75 129.8 181.75 129.8 181.75 109.8 191.75 109.8 191.75 120.05 195.75 120.05 195.75 109.8 M139.75 104.0 L149.75 104.0 149.75 159.8 139.75 159.8 139.75 104.0 M163.75 119.8 L163.75 149.8 167.75 149.8 167.75 119.8 163.75 119.8" fill="#ffffff" fill-rule="evenodd" stroke="none"/>
    <path d="M64.75 118.8 L64.75 158.8 56.75 158.8 56.75 110.8 78.8 110.8 78.8 158.8 70.8 158.8 70.8 118.8 64.75 118.8" fill="url(#gradient2)" fill-rule="evenodd" stroke="none"/>
    <path d="M120.7 110.8 L134.7 110.8 134.7 158.8 112.7 158.8 112.7 105.0 120.7 105.0 120.7 110.8 M120.7 118.8 L120.7 150.8 126.7 150.8 126.7 118.8 120.7 118.8" fill="url(#gradient3)" fill-rule="evenodd" stroke="none"/>
    <path d="M162.75 118.8 L162.75 150.8 168.75 150.8 168.75 118.8 162.75 118.8 M176.75 110.8 L176.75 158.8 154.75 158.8 154.75 110.8 176.75 110.8" fill="url(#gradient4)" fill-rule="evenodd" stroke="none"/>
    <path d="M148.75 105.0 L148.75 158.8 140.75 158.8 140.75 105.0 148.75 105.0" fill="url(#gradient5)" fill-rule="evenodd" stroke="none"/>
    <path d="M204.75 110.8 L204.75 128.8 197.75 128.8 197.75 134.8 204.75 134.8 204.75 158.8 196.75 158.8 196.75 143.05 190.75 143.05 190.75 158.8 182.75 158.8 182.75 134.8 189.75 134.8 189.75 128.8 182.75 128.8 182.75 110.8 190.75 110.8 190.75 121.05 196.75 121.05 196.75 110.8 204.75 110.8" fill="url(#gradient6)" fill-rule="evenodd" stroke="none"/>
    <path d="M84.75 131.15 L106.75 131.15 106.75 139.15 84.75 139.15 84.75 131.15" fill="url(#gradient7)" fill-rule="evenodd" stroke="none"/>
    <path d="M109.25 86.15 L123.3 86.15 125.3 88.15 107.25 88.15 109.25 86.15 M102.6 86.15 L105.9 88.15 52.0 88.15 54.0 86.15 102.6 86.15 M141.6 86.15 L155.65 86.15 157.65 88.15 139.6 88.15 141.6 86.15 M186.6 86.15 L203.7 86.15 206.95 88.1 185.4 88.1 186.6 86.15 M21.65 86.15 L35.7 86.15 37.7 88.15 19.65 88.15 21.65 86.15 M35.7 22.5 L48.75 22.5 50.75 24.5 37.7 24.5 35.7 22.5 M6.6 24.5 L8.6 22.5 21.65 22.5 19.65 24.5 6.6 24.5 M193.7 22.3 L207.7 22.3 209.7 24.3 191.7 24.3 193.7 22.3 M169.05 16.95 L165.6 18.95 157.65 18.95 155.65 16.95 169.05 16.95 M125.3 24.5 L123.3 22.5 136.35 22.5 138.35 24.5 125.3 24.5 M109.25 22.5 L107.25 24.5 94.2 24.5 96.2 22.5 109.25 22.5 M84.05 24.5 L70.05 24.5 68.05 22.5 82.9 22.5 84.05 24.5 M78.9 44.95 L70.05 44.95 68.05 42.95 77.7 42.95 78.9 44.95 M250.65 85.9 L252.65 88.1 210.8 88.1 212.75 85.9 250.65 85.9 M243.55 21.2 Q243.1 20.5 242.05 20.45 L230.4 20.45 Q229.9 20.6 229.8 20.85 L229.8 20.9 228.4 19.5 Q229.1 18.65 230.2 18.5 L230.4 18.45 242.15 18.45 Q244.3 18.6 245.25 20.1 L245.6 24.4 243.55 21.2" fill="#333366" fill-rule="evenodd" stroke="none"/>
    <path d="M96.6 70.4 L95.4 72.4 68.05 72.4 70.05 70.4 96.6 70.4 M8.6 8.75 L6.6 6.75 50.75 6.75 48.75 8.75 8.6 8.75 M207.7 8.55 L193.7 8.55 191.7 6.55 209.7 6.55 207.7 8.55 M207.7 27.85 L193.7 27.85 191.7 25.85 209.7 25.85 207.7 27.85 M167.15 33.8 L170.65 31.8 178.3 31.8 177.1 33.8 167.15 33.8 M141.6 8.75 L139.6 6.75 185.4 6.75 181.9 8.75 141.6 8.75 M90.95 8.75 L54.0 8.75 52.0 6.75 138.35 6.75 136.35 8.75 96.2 8.75 94.3 6.9 90.95 8.75 M86.45 31.1 L83.1 33.1 68.05 33.1 70.05 31.1 86.45 31.1 M233.55 72.2 L216.2 72.15 Q214.7 72.15 212.8 70.75 L210.8 66.7 210.8 66.65 214.0 69.15 Q215.45 70.15 216.2 70.15 L233.3 70.2 233.8 69.95 235.2 71.3 233.7 72.15 233.55 72.2 M253.0 6.55 L250.05 8.55 212.8 8.55 210.8 6.55 253.0 6.55" fill="#ffffff" fill-rule="evenodd" stroke="none"/>
    <path d="M83.75 130.15 L83.75 126.1 107.7 126.15 107.75 130.15 83.75 130.15 M51.75 105.8 L83.8 105.8 79.8 109.8 55.75 109.8 51.75 105.8 M107.7 100.05 L107.7 100.0 125.7 100.0 121.7 104.0 111.7 104.0 111.7 104.05 107.7 100.05 M135.75 105.8 L135.7 109.8 121.7 109.8 125.7 105.8 135.75 105.8 M153.75 109.8 L153.75 105.8 209.75 105.8 205.75 109.8 153.75 109.8 M135.75 100.0 L153.75 100.0 149.75 104.0 139.75 104.0 135.75 100.0" fill="#ccccff" fill-rule="evenodd" stroke="none"/>
    <path d="M55.75 159.8 L79.8 159.8 83.8 163.8 51.75 163.8 55.75 159.8 M107.7 163.8 L111.7 159.8 205.75 159.8 209.75 163.8 107.7 163.8 M83.75 144.15 L83.75 140.15 107.7 140.15 107.7 144.15 83.75 144.15" fill="#333366" fill-rule="evenodd" stroke="none"/>
  </g>
  <defs>
    <linearGradient gradientTransform="matrix(0.0, -0.1058, -0.1059, 0.0, 129.75, 90.75)" gradientUnits="userSpaceOnUse" id="gradient0" spreadMethod="pad" x1="-819.2" x2="819.2">
      <stop offset="0.0" stop-color="#ddeeff"/>
      <stop offset="1.0" stop-color="#667799"/>
    </linearGradient>
    <linearGradient gradientTransform="matrix(0.0, -0.0473, -0.0474, 0.0, 129.55, 47.35)" gradientUnits="userSpaceOnUse" id="gradient1" spreadMethod="pad" x1="-819.2" x2="819.2">
      <stop offset="0.0" stop-color="#ffff00"/>
      <stop offset="0.615686274509804" stop-color="#f7ac41"/>
      <stop offset="1.0" stop-color="#ff6633"/>
    </linearGradient>
    <linearGradient gradientTransform="matrix(0.0, 0.0293, 0.0293, 0.0, 67.75, 134.8)" gradientUnits="userSpaceOnUse" id="gradient2" spreadMethod="pad" x1="-819.2" x2="819.2">
      <stop offset="0.0" stop-color="#ffffff"/>
      <stop offset="1.0" stop-color="#ddeeff"/>
    </linearGradient>
    <linearGradient gradientTransform="matrix(0.0, 0.0328, 0.0328, 0.0, 123.7, 131.9)" gradientUnits="userSpaceOnUse" id="gradient3" spreadMethod="pad" x1="-819.2" x2="819.2">
      <stop offset="0.0" stop-color="#ffffff"/>
      <stop offset="1.0" stop-color="#ddeeff"/>
    </linearGradient>
    <linearGradient gradientTransform="matrix(0.0, 0.0293, 0.0293, 0.0, 165.75, 134.8)" gradientUnits="userSpaceOnUse" id="gradient4" spreadMethod="pad" x1="-819.2" x2="819.2">
      <stop offset="0.0" stop-color="#ffffff"/>
      <stop offset="0.0" stop-color="#ffffff"/>
      <stop offset="1.0" stop-color="#ddeeff"/>
    </linearGradient>
    <linearGradient gradientTransform="matrix(0.0, 0.0328, 0.0328, 0.0, 144.75, 131.9)" gradientUnits="userSpaceOnUse" id="gradient5" spreadMethod="pad" x1="-819.2" x2="819.2">
      <stop offset="0.0" stop-color="#ffffff"/>
      <stop offset="1.0" stop-color="#ddeeff"/>
    </linearGradient>
    <linearGradient gradientTransform="matrix(0.0, 0.0293, 0.0293, 0.0, 193.75, 134.8)" gradientUnits="userSpaceOnUse" id="gradient6" spreadMethod="pad" x1="-819.2" x2="819.2">
      <stop offset="0.0" stop-color="#ffffff"/>
      <stop offset="1.0" stop-color="#ddeeff"/>
    </linearGradient>
    <linearGradient gradientTransform="matrix(0.0, 0.0049, 0.0049, 0.0, 95.75, 135.15)" gradientUnits="userSpaceOnUse" id="gradient7" spreadMethod="pad" x1="-819.2" x2="819.2">
      <stop offset="0.0" stop-color="#ffffff"/>
      <stop offset="1.0" stop-color="#ddeeff"/>
    </linearGradient>
  </defs>
</svg>
