<?xml version="1.0" encoding="UTF-8" standalone="no"?>
<svg xmlns:ffdec="https://www.free-decompiler.com/flash" xmlns:xlink="http://www.w3.org/1999/xlink" ffdec:objectType="shape" height="121.05px" width="158.0px" xmlns="http://www.w3.org/2000/svg">
  <g transform="matrix(1.0, 0.0, 0.0, 1.0, 0.0, 0.0)">
    <path d="M154.0 78.0 L154.0 43.05 4.0 43.05 4.0 78.0 154.0 78.0 M154.0 39.0 L154.0 4.05 4.0 4.05 4.0 39.0 154.0 39.0 M0.0 121.05 L0.0 0.0 158.0 0.0 158.0 121.05 0.0 121.05 M154.0 117.0 L154.0 82.05 4.0 82.05 4.0 117.0 154.0 117.0" fill="#667799" fill-rule="evenodd" stroke="none"/>
    <path d="M154.0 39.0 L4.0 39.0 4.0 4.05 154.0 4.05 154.0 39.0 M154.0 78.0 L4.0 78.0 4.0 43.05 154.0 43.05 154.0 78.0 M154.0 117.0 L4.0 117.0 4.0 82.05 154.0 82.05 154.0 117.0" fill="#ddeeff" fill-rule="evenodd" stroke="none"/>
  </g>
</svg>
